<?xml version="1.0" encoding="UTF-8" standalone="no"?>
<svg width="308px" height="75px" viewBox="0 0 308 75" version="1.1" xmlns="http://www.w3.org/2000/svg" xmlns:xlink="http://www.w3.org/1999/xlink">
    <g id="Page-1" stroke="none" stroke-width="1" fill="none" fill-rule="evenodd">
        <g id="logo" transform="translate(0.000000, 1.000000)">
            <g id="Page-1">
                <g>
                    <g id="Group" transform="translate(92.279948, 35.685660) scale(1, -1) translate(-92.279948, -35.685660) " fill="#D90000">
                        <path d="M131.288254,71.3581889 C130.22151,71.2772114 129.412708,71.0627304 128.56893,70.6381458 C127.598368,70.1522807 126.7065,69.3884661 126.068202,68.495525 C125.519528,67.7273333 125.128242,66.830015 124.938065,65.8998681 C124.795978,65.1973336 124.806908,66.6067797 124.806908,48.9733837 L124.806908,32.9551604 L127.841008,32.9704805 C130.776741,32.9836121 134.748616,33.0164408 137.244972,33.0448922 L138.458175,33.0602125 L138.469105,40.5298389 L138.480035,47.9994653 L144.305596,42.1625203 C147.510201,38.9540607 150.209851,36.2599175 150.306033,36.17894 C151.305013,35.334148 152.581609,34.7913799 153.923783,34.6359907 C154.264792,34.5987847 155.010201,34.592219 155.346838,34.6250476 C156.697756,34.7629282 157.983095,35.2947534 159.025794,36.1526771 C159.135092,36.2424089 161.847858,38.9409292 165.056835,42.1515772 L170.886768,47.9863339 L170.886768,40.9544235 L170.886768,33.9247019 L170.958904,33.9247019 C170.996065,33.9247019 171.23652,33.9334562 171.487904,33.9465877 C171.741475,33.9575305 172.508744,33.9925477 173.192947,34.023188 C175.6587,34.1326169 178.832702,34.2945719 181.16074,34.4280754 C182.555377,34.5090529 184.53585,34.6294249 184.542407,34.6359907 C184.562081,34.6491221 184.544593,65.0222472 184.527106,65.1995222 C184.310697,67.2764856 183.195861,69.1127048 181.45803,70.2529556 C179.940979,71.2465711 178.10478,71.5879899 176.296998,71.2159311 C175.298018,71.0080158 174.301224,70.5374709 173.470563,69.8808968 C173.359079,69.791165 169.470271,65.9151881 163.985718,60.4218502 L154.688866,51.1160045 L145.426989,60.386833 C138.604634,67.2130167 136.099534,69.7079989 135.922472,69.8480681 C134.864471,70.688483 133.677499,71.1809139 132.35937,71.3275486 C132.140775,71.3516231 131.458758,71.3713203 131.288254,71.3581889 L131.288254,71.3581889 L131.288254,71.3581889 Z" id="Shape"></path>
                        <path d="M39.034538,70.5068309 C37.9371903,70.3820817 36.8988633,70.0034574 35.9916934,69.3972204 C35.5785485,69.1214591 35.3665112,68.9507499 35.0102011,68.6027656 C34.5424075,68.1475407 34.201399,67.7142016 33.8931798,67.1911309 C33.208977,66.0268059 27.7703294,56.6159082 27.7768872,56.6093425 C27.7812591,56.6049653 27.8490236,56.6093425 27.9255319,56.6202853 C28.0042262,56.6312282 28.1965899,56.6421711 28.3561644,56.6421711 C28.8742349,56.6421711 29.3420286,56.5305536 29.7814048,56.3007526 C30.225153,56.0709515 30.5508598,55.7492302 30.7366657,55.3618514 C31.2722238,54.2456752 30.4131449,53.0507099 28.8764209,52.7749488 C28.6141067,52.7267999 28.0676188,52.7267999 27.8053046,52.7749488 C27.1582629,52.8909435 26.6052171,53.175459 26.2357913,53.5803465 L26.0958904,53.7335471 L22.7579423,47.9732024 C20.9217429,44.8063258 19.4243661,42.2041032 19.428738,42.1909717 C19.4396677,42.1537657 20.2375401,41.7992158 20.9960653,41.4971916 C23.4159137,40.5298389 26.5986593,39.6215777 30.406587,38.8074258 C31.3727776,38.6016991 32.7630428,38.325938 32.8701545,38.3193723 L32.9554066,38.3128063 L36.369863,44.2044662 C38.2475955,47.4457544 39.7886913,50.0983144 39.7952492,50.0961258 C39.8018071,50.0961258 41.6401924,46.9555123 43.8829787,43.1145529 C46.1257651,39.2735935 47.9663363,36.1286028 47.9728942,36.1220371 C47.9881959,36.1132826 49.5904984,35.9381962 50.8780239,35.8068814 C54.5722821,35.4304455 59.140921,35.0408781 63.1740017,34.7585511 C63.8603906,34.7104024 64.472457,34.6666307 64.5336637,34.660065 C64.6473331,34.6513107 64.6495191,34.6513107 64.6232877,34.6972708 C64.610172,34.7235339 60.4481201,41.8517418 55.3745264,50.5360305 C50.3009327,59.2203194 46.0273973,66.5389337 45.8787526,66.7971864 C45.7279219,67.0554389 45.5333722,67.3771602 45.4459341,67.5084752 C44.5278345,68.8960353 43.0807345,69.9181025 41.4478286,70.3317445 C40.8641795,70.4783794 40.5187992,70.5221509 39.8608277,70.5309052 C39.4826581,70.5352824 39.215972,70.5265281 39.034538,70.5068309 L39.034538,70.5068309 L39.034538,70.5068309 Z" id="Shape"></path>
                        <path d="M108.248324,70.5177738 C103.517925,70.3208016 99.1460216,69.2768484 94.8703002,67.3202571 C93.9696881,66.9088039 92.6056543,66.193138 91.7006704,65.6591242 C88.373652,63.6959672 85.3439231,61.144082 82.7972894,58.1654235 C77.9051297,52.4422845 74.9693967,45.2593621 74.4535121,37.7547182 C74.3923055,36.8639659 74.3770038,36.3365179 74.3770038,35.2006445 L74.3770038,34.0800912 L74.4928592,34.0691481 C74.6152725,34.0560166 76.0230254,33.9881706 78.3335762,33.8809302 C82.0387642,33.7102209 88.0545031,33.4804199 88.0872923,33.5088714 C88.0960361,33.5154371 88.0916642,33.6423749 88.0785485,33.793387 C88.0610609,33.9640963 88.0523171,34.5199958 88.0523171,35.2706791 C88.0501312,36.5619417 88.0654328,36.8398916 88.1834742,37.8422614 C88.6774993,42.0377711 90.4371903,46.0494397 93.2024191,49.2841622 C93.796998,49.9801309 94.7063538,50.9037121 95.3665112,51.4793088 C97.4693967,53.322094 99.7952492,54.6899569 102.398718,55.624481 C103.981347,56.1913234 105.725736,56.5808908 107.428592,56.7494117 C108.095307,56.8150689 108.488779,56.8391435 109.395949,56.8610292 C110.250656,56.882915 110.499854,56.9048009 110.991693,57.0054756 C113.374381,57.4957176 115.346109,59.275034 116.093704,61.6080612 C116.318857,62.3105955 116.412853,62.9212096 116.412853,63.7003444 C116.412853,63.9454654 116.401924,64.245301 116.390994,64.3700502 C116.1877,66.3879216 115.114398,68.2044439 113.450889,69.3403173 C112.543719,69.9618742 111.590644,70.3273673 110.467065,70.4871337 C110.16759,70.5287166 108.936899,70.5462252 108.248324,70.5177738 L108.248324,70.5177738 L108.248324,70.5177738 Z" id="Shape"></path>
                        <path d="M182.472311,33.9903592 C179.477558,33.6533178 175.809531,33.2615618 172.60274,32.9398404 C171.761148,32.8566744 171.031041,32.7822626 170.978578,32.7756969 L170.886768,32.7625654 L170.893326,19.8674469 C170.899883,7.86964667 170.902069,6.95481988 170.937045,6.73158463 C171.068202,5.87803811 171.288983,5.17550364 171.643107,4.49266642 C172.506558,2.82059064 173.962402,1.612494 175.77237,1.06316021 C176.777907,0.758947467 177.971437,0.704232945 179.049111,0.912148127 C180.806616,1.25356674 182.404547,2.32597137 183.401341,3.831715 C183.993734,4.72684457 184.321626,5.60008833 184.498688,6.76441336 C184.533664,7.00296866 184.538036,7.76897197 184.542407,20.613753 L184.548965,34.2092173 L184.457155,34.2070287 C184.404693,34.2048401 183.512824,34.1085426 182.472311,33.9903592 L182.472311,33.9903592 L182.472311,33.9903592 Z" id="Shape"></path>
                        <path d="M6.84202856,20.5087011 C3.58496065,14.8862369 0.848149228,10.1523365 0.760711163,9.98600436 C0.393471291,9.28784707 0.157388516,8.53497526 0.0393471291,7.68361731 C-0.00655785485,7.34001011 -0.0131157097,6.45144629 0.028417371,6.09689617 C0.122413291,5.3068185 0.373797727,4.46202628 0.710434276,3.78794338 C1.04051297,3.13136911 1.41212474,2.6082983 1.92363742,2.08303889 C3.02972894,0.947165421 4.36534538,0.279648259 5.97857767,0.0520358499 C6.35893326,-0.000490090667 7.27703294,-0.000490090667 7.66176042,0.0520358499 C9.56353833,0.316854133 11.1636549,1.24481242 12.2806762,2.73304741 C12.3856019,2.87311657 12.5189449,3.06352312 12.5757797,3.15325493 C12.6326144,3.24298675 14.9016322,7.15616931 17.620956,11.8484867 L22.5633926,20.3773863 L39.7099971,20.3861406 C50.2747013,20.3905178 56.9090644,20.4014607 56.9943165,20.4124036 L57.1298455,20.4342894 L61.4077528,13.1112978 C63.7598368,9.08430905 66.0179248,5.21927527 66.4266978,4.52111795 C66.8332848,3.82296066 67.2333139,3.15325493 67.3120082,3.03288299 C68.2038764,1.68471717 69.6050714,0.677969976 71.1964442,0.244630965 C73.3037015,-0.32877722 75.5377441,0.135201923 77.2624599,1.50744212 C77.5269601,1.71973446 77.981638,2.16401638 78.206791,2.43102324 C79.9992713,4.56051243 80.3249781,7.59169691 79.0243369,10.0363417 C78.9019236,10.2661427 68.4858642,28.1030767 68.4574468,28.1293398 C68.448703,28.1359055 67.6399009,28.1534141 66.6605946,28.1665455 C62.9160595,28.2190716 57.4905275,28.3328777 54.1023025,28.431364 C53.6935296,28.4423068 52.9852813,28.4641926 52.5284174,28.4751355 C50.2091227,28.5364158 45.8284757,28.6961822 42.5495482,28.8362514 C33.7226756,29.2148757 25.7570679,29.6985522 16.5913728,30.4120296 C15.9377732,30.4623668 13.0238997,30.7052995 12.8861848,30.7184309 L12.7659574,30.7315624 L6.84202856,20.5087011 L6.84202856,20.5087011 L6.84202856,20.5087011 Z" id="Shape"></path>
                        <path d="M138.064704,30.0706108 C137.638444,30.0399708 133.649082,29.7904726 132.118916,29.7007408 C129.65972,29.5562944 125.082338,29.3067963 124.889974,29.3067963 L124.806908,29.3067963 L124.806908,18.2654058 C124.806908,6.12972491 124.798164,6.95700846 124.938065,6.26103974 C125.058292,5.65699142 125.222238,5.18644654 125.517342,4.58677539 C125.862722,3.88424093 126.238706,3.36117012 126.807053,2.78995051 C127.517488,2.07866173 128.286943,1.57747671 129.22253,1.22073803 C130.005101,0.920902452 130.748324,0.789587599 131.64675,0.789587599 C132.333139,0.789587599 132.914602,0.87056509 133.544156,1.05440588 C135.375984,1.58841961 136.903964,2.87311657 137.747741,4.58677539 C138.106237,5.31557282 138.294229,5.93056403 138.418828,6.79724206 C138.453804,7.04236312 138.45599,7.78210344 138.462547,18.5783728 L138.469105,30.0946854 L138.388225,30.0924968 C138.34232,30.0903082 138.198047,30.0793653 138.064704,30.0706108 L138.064704,30.0706108 L138.064704,30.0706108 Z" id="Shape"></path>
                        <path d="M87.6894491,28.1446598 C87.0948703,28.1359055 84.0170504,28.122774 80.8539784,28.1140195 C77.6887205,28.1030767 75.0983678,28.0921338 75.0983678,28.0877566 C75.0983678,28.0439851 75.3235208,27.0656894 75.4371903,26.6148417 C77.1160012,19.9615559 80.7009618,13.9539015 85.7767415,9.2856585 C91.6110463,3.91706964 99.0738852,0.680158557 106.947683,0.10237321 C108.143398,0.0126413945 109.540222,-0.0223758992 110.095453,0.0213957179 C113.424658,0.286214001 116.056543,2.85560793 116.390994,6.17130794 C116.401924,6.29605705 116.412853,6.59589262 116.412853,6.84101367 C116.412853,7.3181243 116.390994,7.59388549 116.325415,7.99001863 C115.960361,10.1413936 114.574468,12.0060645 112.622413,12.9668515 C111.634363,13.454905 110.657243,13.6803289 109.527106,13.6803289 C106.283154,13.6825175 103.008598,14.4528979 100.083795,15.903927 C99.2116001,16.3350774 98.5667444,16.702759 97.7885456,17.2148869 C93.9784319,19.7098691 90.9618187,23.485171 89.3988633,27.7135093 L89.230545,28.1665455 L89.0010201,28.164357 C88.8742349,28.1621684 88.284028,28.1534141 87.6894491,28.1446598 L87.6894491,28.1446598 L87.6894491,28.1446598 Z" id="Shape"></path>
                    </g>
                    <path d="M213.229652,14.5234157 C212.947095,14.0336507 212.702212,13.4873744 212.231285,12.3383104 L208.011771,1.78952593 C207.55968,0.659299027 207.465494,0.376742302 207.371309,0 L205.073181,0 C204.978995,0.452090762 204.828298,0.885344408 204.470393,1.78952593 L200.269717,12.3383104 C199.817626,13.4685372 199.610417,13.920628 199.271349,14.5234157 L201.55064,14.5234157 C201.6825,13.8452796 201.833197,13.3555146 202.134591,12.5831929 L203.038772,10.2473906 L209.462229,10.2473906 L210.385247,12.5831929 C210.592456,13.1483063 210.818501,13.8829538 210.950361,14.5234157 L213.229652,14.5234157 L213.229652,14.5234157 Z M208.934789,8.70274715 L203.566212,8.70274715 L205.845503,2.67487034 C205.883177,2.58068477 205.939688,2.3923136 206.033874,2.128594 C206.071548,1.99673419 206.146897,1.77068882 206.241082,1.5069692 C206.58015,2.50533631 206.58015,2.50533631 206.636661,2.67487034 L208.934789,8.70274715 L208.934789,8.70274715 Z M214.228019,11.6601742 C214.41639,12.451333 214.567087,12.7904011 214.868481,13.2048176 C215.603128,14.2031847 216.940563,14.730624 218.711253,14.730624 C221.423796,14.730624 223.081462,13.5250486 223.081462,11.5471515 C223.081462,10.7183185 222.685884,9.94599675 222.026583,9.45623175 C221.461471,9.04181522 220.764498,8.79693272 219.031482,8.42019043 C217.901256,8.17530794 217.449165,8.02461101 217.015912,7.79856562 C216.620332,7.59135737 216.394287,7.21461505 216.394287,6.80019852 C216.394287,5.85834277 217.317306,5.21788087 218.635904,5.21788087 C219.464738,5.21788087 220.1052,5.46276337 220.519615,5.91485412 C220.764498,6.17857373 220.858684,6.40461912 220.971706,6.87554698 L222.742395,6.61182738 C222.478675,5.74532009 222.233792,5.29322934 221.725191,4.85997569 C221.028218,4.23835088 219.954502,3.89928281 218.617067,3.89928281 C217.279631,3.89928281 216.224753,4.23835088 215.508943,4.93532413 C214.981503,5.42508913 214.68011,6.10322527 214.68011,6.81903565 C214.68011,7.72321716 215.094526,8.47670176 215.866848,8.96646676 C216.526147,9.38088329 217.166609,9.58809155 218.635904,9.8894854 C220.067525,10.2097164 220.368917,10.2850648 220.783334,10.5487844 C221.160077,10.7748298 221.348449,11.1704092 221.348449,11.6601742 C221.348449,12.6962155 220.350081,13.3555146 218.805437,13.3555146 C217.882419,13.3555146 217.185446,13.1294692 216.714518,12.7150526 C216.356613,12.3759846 216.205916,12.0745907 216.074056,11.3776175 L214.228019,11.6601742 L214.228019,11.6601742 Z M224.644942,11.6601742 C224.833315,12.451333 224.984012,12.7904011 225.285404,13.2048176 C226.020052,14.2031847 227.357488,14.730624 229.128176,14.730624 C231.840721,14.730624 233.498387,13.5250486 233.498387,11.5471515 C233.498387,10.7183185 233.102809,9.94599675 232.443508,9.45623175 C231.878396,9.04181522 231.181423,8.79693272 229.448407,8.42019043 C228.318181,8.17530794 227.866091,8.02461101 227.432837,7.79856562 C227.037257,7.59135737 226.811212,7.21461505 226.811212,6.80019852 C226.811212,5.85834277 227.73423,5.21788087 229.052829,5.21788087 C229.881661,5.21788087 230.522123,5.46276337 230.93654,5.91485412 C231.181423,6.17857373 231.275607,6.40461912 231.388632,6.87554698 L233.15932,6.61182738 C232.8956,5.74532009 232.650717,5.29322934 232.142116,4.85997569 C231.445143,4.23835088 230.371427,3.89928281 229.033992,3.89928281 C227.696557,3.89928281 226.641678,4.23835088 225.925866,4.93532413 C225.398429,5.42508913 225.097034,6.10322527 225.097034,6.81903565 C225.097034,7.72321716 225.511451,8.47670176 226.283772,8.96646676 C226.943071,9.38088329 227.583532,9.58809155 229.052829,9.8894854 C230.48445,10.2097164 230.785842,10.2850648 231.200259,10.5487844 C231.577002,10.7748298 231.765374,11.1704092 231.765374,11.6601742 C231.765374,12.6962155 230.767006,13.3555146 229.222362,13.3555146 C228.299344,13.3555146 227.602371,13.1294692 227.131443,12.7150526 C226.773537,12.3759846 226.62284,12.0745907 226.490981,11.3776175 L224.644942,11.6601742 L224.644942,11.6601742 Z M240.336261,14.7871353 C243.444384,14.7871353 245.478793,12.6397042 245.478793,9.32437194 C245.478793,6.0090397 243.463221,3.89928281 240.298586,3.89928281 C237.133951,3.89928281 235.118379,6.02787681 235.118379,9.34320907 C235.118379,12.6773784 237.133951,14.7871353 240.336261,14.7871353 L240.336261,14.7871353 L240.336261,14.7871353 Z M240.336261,5.31206645 C242.446016,5.31206645 243.745779,6.85670987 243.745779,9.36204618 C243.745779,11.8485454 242.446016,13.3555146 240.298586,13.3555146 C238.169991,13.3555146 236.851395,11.8108711 236.851395,9.32437194 C236.851395,6.83787276 238.18883,5.31206645 240.336261,5.31206645 L240.336261,5.31206645 L240.336261,5.31206645 Z M256.53618,6.95089545 C256.328971,6.40461912 256.159437,6.08438816 255.876879,5.68880874 C255.048047,4.50207049 253.729448,3.8804457 252.090621,3.8804457 C249.09552,3.8804457 247.136459,6.06555105 247.136459,9.38088329 C247.136459,12.6773784 249.114356,14.7871353 252.165968,14.7871353 C253.767123,14.7871353 255.048047,14.2220219 255.895718,13.1106321 C256.215949,12.6962155 256.404319,12.3383104 256.668038,11.6225 L254.991536,11.2080835 C254.840839,11.6790113 254.746653,11.9050567 254.595955,12.1499392 C254.106191,12.9034238 253.25852,13.3178403 252.22248,13.3178403 C250.169235,13.3178403 248.869472,11.7731969 248.869472,9.34320907 C248.869472,6.87554698 250.13156,5.31206645 252.147132,5.31206645 C253.484567,5.31206645 254.36991,5.99020259 254.878514,7.42182333 L256.53618,6.95089545 L256.53618,6.95089545 Z M258.740122,0 L258.740122,1.8837115 L260.831041,1.8837115 L260.831041,0 L258.740122,0 L258.740122,0 Z M258.777797,4.16300242 C258.87198,4.82230145 258.909655,5.44392624 258.909655,6.38578201 L258.909655,12.3006361 C258.909655,13.1671434 258.87198,13.6945826 258.777797,14.5234157 L260.77453,14.5234157 C260.680344,13.7322569 260.642671,13.2048176 260.642671,12.3006361 L260.642671,6.40461912 C260.642671,5.38741491 260.680344,4.84113856 260.77453,4.16300242 L258.777797,4.16300242 L258.777797,4.16300242 Z M270.249599,14.5234157 L272.039126,14.5234157 C271.926103,13.7322569 271.888428,13.2801661 271.888428,12.3571475 L271.888428,7.12042948 C271.888428,6.08438816 271.643545,5.3685778 271.078433,4.84113856 C270.400296,4.18183953 269.364255,3.86160859 267.932634,3.86160859 C266.482176,3.86160859 265.333111,4.20067666 264.504279,4.89764991 C263.958003,5.33090356 263.675445,5.7641572 263.336378,6.70601295 L265.08823,7.04508102 C265.257764,6.53647891 265.389623,6.29159642 265.634506,6.02787681 C266.143107,5.50043759 266.896594,5.23671798 267.913798,5.23671798 C269.51495,5.23671798 270.249599,5.83950566 270.249599,7.12042948 L270.249599,8.09995947 C267.800773,8.15647082 266.764733,8.28833062 265.634506,8.6462358 C264.014515,9.17367504 263.091494,10.3039019 263.091494,11.7543598 C263.091494,13.58156 264.391257,14.6929497 266.501013,14.6929497 C267.235661,14.6929497 267.932634,14.5799271 268.573096,14.3350446 C269.194719,14.1089992 269.533789,13.8829538 270.249599,13.261329 L270.249599,14.5234157 L270.249599,14.5234157 Z M270.249599,10.5111102 C270.249599,11.2080835 270.080065,11.6601742 269.627975,12.1311021 C268.893327,12.8845867 267.7631,13.3555146 266.727058,13.3555146 C265.54032,13.3555146 264.805672,12.7338898 264.805672,11.7543598 C264.805672,10.8878525 265.2766,10.2850648 266.218457,9.90832251 C267.047289,9.56925444 268.102168,9.43739464 270.249599,9.38088329 L270.249599,10.5111102 L270.249599,10.5111102 Z M275.768873,1.33743517 C275.844223,1.97789708 275.900734,2.73138167 275.900734,3.48486628 L275.900734,4.16300242 L275.166086,4.16300242 C274.374926,4.16300242 273.998184,4.14416531 273.470745,4.04997974 L273.470745,5.70764587 C274.073534,5.63229741 274.487949,5.59462316 275.147249,5.59462316 L275.900734,5.59462316 L275.900734,12.2064505 C275.900734,13.1671434 276.070267,13.7322569 276.484684,14.1278363 C276.899102,14.5045786 277.577236,14.7117868 278.481418,14.7117868 C279.272577,14.7117868 279.875364,14.5987642 280.666524,14.2785332 L280.252107,12.7527269 C279.668156,13.091795 279.291414,13.2048176 278.782813,13.2048176 C278.387232,13.2048176 278.067001,13.091795 277.878631,12.9222609 C277.690259,12.7338898 277.614911,12.4701702 277.614911,11.9238938 L277.614911,5.59462316 L278.500254,5.59462316 C279.366763,5.59462316 279.800017,5.61346027 280.402804,5.70764587 L280.402804,4.04997974 C279.781178,4.14416531 279.366763,4.16300242 278.481418,4.16300242 L277.614911,4.16300242 L277.614911,3.48486628 C277.614911,2.67487034 277.671422,1.94022285 277.74677,1.33743517 L275.768873,1.33743517 L275.768873,1.33743517 Z M282.192331,0 L282.192331,1.8837115 L284.283251,1.8837115 L284.283251,0 L282.192331,0 L282.192331,0 Z M282.230004,4.16300242 C282.32419,4.82230145 282.361865,5.44392624 282.361865,6.38578201 L282.361865,12.3006361 C282.361865,13.1671434 282.32419,13.6945826 282.230004,14.5234157 L284.226739,14.5234157 C284.132553,13.7322569 284.094878,13.2048176 284.094878,12.3006361 L284.094878,6.40461912 C284.094878,5.38741491 284.132553,4.84113856 284.226739,4.16300242 L282.230004,4.16300242 L282.230004,4.16300242 Z M291.610888,14.7871353 C294.719012,14.7871353 296.75342,12.6397042 296.75342,9.32437194 C296.75342,6.0090397 294.737848,3.89928281 291.573213,3.89928281 C288.408578,3.89928281 286.393006,6.02787681 286.393006,9.34320907 C286.393006,12.6773784 288.408578,14.7871353 291.610888,14.7871353 L291.610888,14.7871353 L291.610888,14.7871353 Z M291.610888,5.31206645 C293.720644,5.31206645 295.020404,6.85670987 295.020404,9.36204618 C295.020404,11.8485454 293.720644,13.3555146 291.573213,13.3555146 C289.444619,13.3555146 288.12602,11.8108711 288.12602,9.32437194 C288.12602,6.83787276 289.463455,5.31206645 291.610888,5.31206645 L291.610888,5.31206645 L291.610888,5.31206645 Z M300.859912,14.5234157 C300.765726,13.7699311 300.728051,13.1294692 300.728051,12.3006361 L300.728051,8.60856158 C300.935259,7.83623986 301.180143,7.38414909 301.688744,6.78136141 C302.461067,5.85834277 303.271062,5.44392624 304.250592,5.44392624 C305.682213,5.44392624 306.416859,6.29159642 306.416859,7.94926255 L306.416859,12.3006361 C306.416859,13.1859805 306.379186,13.7322569 306.285,14.5234157 L308.262897,14.5234157 C308.168711,13.8829538 308.131038,13.2990032 308.131038,12.3194732 L308.131038,7.68554294 C308.131038,6.68717584 307.942666,5.95252834 307.565924,5.3685778 C306.944298,4.46439627 305.870583,3.97463127 304.495475,3.97463127 C302.81897,3.97463127 301.632233,4.6339303 300.690376,6.08438816 C300.728051,5.61346027 300.728051,5.5192747 300.728051,5.2743922 L300.728051,4.16300242 L298.882015,4.16300242 C298.995037,4.91648702 299.03271,5.46276337 299.03271,6.38578201 L299.03271,12.3006361 C299.03271,13.261329 298.995037,13.7699311 298.882015,14.5234157 L300.859912,14.5234157 L300.859912,14.5234157 Z M202.360636,26.6356808 L206.674336,26.6356808 C207.710377,26.6356808 208.294328,26.673355 208.934789,26.7675404 L208.934789,24.9215032 C208.237816,25.0156889 207.672703,25.0533631 206.674336,25.0533631 L202.360636,25.0533631 L202.360636,20.4382698 L207.69154,20.4382698 C208.727581,20.4382698 209.311532,20.475944 209.951994,20.5701296 L209.951994,18.7052552 C209.236183,18.7994408 208.652233,18.837115 207.672703,18.837115 L202.586682,18.837115 C201.663663,18.837115 201.079712,18.8182779 200.439251,18.7806037 C200.552273,19.5340883 200.589948,20.136876 200.589948,21.0033833 L200.589948,31.0247284 C200.589948,32.098444 200.552273,32.7200688 200.439251,33.3605307 L202.511333,33.3605307 C202.398311,32.6635576 202.360636,32.098444 202.360636,31.0058914 L202.360636,26.6356808 L202.360636,26.6356808 Z M216.63917,33.6242503 C219.747294,33.6242503 221.781702,31.4768193 221.781702,28.161487 C221.781702,24.8461548 219.76613,22.7363978 216.601495,22.7363978 C213.43686,22.7363978 211.421289,24.8649918 211.421289,28.180324 C211.421289,31.5144935 213.43686,33.6242503 216.63917,33.6242503 L216.63917,33.6242503 L216.63917,33.6242503 Z M216.63917,24.1491816 C218.748926,24.1491816 220.048688,25.6938248 220.048688,28.1991613 C220.048688,30.6856604 218.748926,32.1926297 216.601495,32.1926297 C214.472901,32.1926297 213.154303,30.6479862 213.154303,28.161487 C213.154303,25.6749878 214.491738,24.1491816 216.63917,24.1491816 L216.63917,24.1491816 L216.63917,24.1491816 Z M230.804681,23.0001175 C230.032358,22.8682577 229.655616,22.8305834 229.071665,22.8305834 C228.092136,22.8305834 227.225629,23.094303 226.585167,23.6029051 C226.264936,23.8289506 226.038891,24.1115074 225.71866,24.6012722 C225.737496,24.4505753 225.737496,24.4129011 225.756333,24.2810412 L225.756333,24.1491816 L225.756333,23.9796475 L225.756333,23.0001175 L223.910297,23.0001175 C224.00448,23.6970907 224.042155,24.22453 224.042155,25.222897 L224.042155,31.1377511 C224.042155,31.9854214 224.023319,32.437512 223.910297,33.3605307 L225.888194,33.3605307 C225.794008,32.5882091 225.756333,32.0419326 225.756333,31.1377511 L225.756333,27.4080024 C225.850519,26.5414951 226.020052,26.0894043 226.472144,25.5054537 C227.037257,24.7896433 227.790741,24.4317381 228.770273,24.4317381 C229.260037,24.4317381 229.617941,24.4882496 230.314914,24.7142949 L230.804681,23.0001175 L230.804681,23.0001175 Z M212.400819,41.4416531 C211.948728,40.2360778 211.590823,39.6332901 210.875012,38.9363169 C209.801297,37.9002755 208.369676,37.3916734 206.561313,37.3916734 C204.75295,37.3916734 203.302492,37.9379497 202.191102,39.0116653 C200.759481,40.4056117 199.968323,42.4965315 199.968323,44.9641937 C199.968323,47.3376702 200.70297,49.4097528 202.021568,50.7471879 C203.114121,51.8774147 204.677602,52.4613655 206.542476,52.4613655 C208.67107,52.4613655 210.441759,51.6890436 211.496637,50.3139343 C211.986402,49.6734723 212.250122,49.0706848 212.58919,47.9027835 L210.705478,47.5072041 C210.535944,48.3548744 210.36641,48.806965 209.970831,49.3532413 C209.25502,50.3327715 208.049445,50.8790478 206.598987,50.8790478 C203.679234,50.8790478 201.81436,48.5620825 201.81436,44.9076822 C201.81436,41.253282 203.64156,38.9739911 206.598987,38.9739911 C207.898748,38.9739911 208.991301,39.4260818 209.707111,40.273752 C210.102691,40.7446799 210.309899,41.1214221 210.573618,41.9314182 L212.400819,41.4416531 L212.400819,41.4416531 Z M219.50241,52.4613655 C222.610534,52.4613655 224.644942,50.3139343 224.644942,46.998602 C224.644942,43.6832697 222.629373,41.573513 219.464738,41.573513 C216.300101,41.573513 214.28453,43.702107 214.28453,47.0174392 C214.28453,50.3516085 216.300101,52.4613655 219.50241,52.4613655 L219.50241,52.4613655 L219.50241,52.4613655 Z M219.50241,42.9862966 C221.612168,42.9862966 222.911929,44.53094 222.911929,47.0362762 C222.911929,49.5227754 221.612168,51.0297447 219.464738,51.0297447 C217.336143,51.0297447 216.017545,49.4851012 216.017545,46.998602 C216.017545,44.5121028 217.35498,42.9862966 219.50241,42.9862966 L219.50241,42.9862966 L219.50241,42.9862966 Z M228.732598,52.1976457 C228.638412,51.4253241 228.600737,50.8978848 228.600737,49.9748663 L228.600737,46.2639546 C228.600737,45.8872122 228.939806,44.9453565 229.260037,44.4744286 C229.843988,43.6267585 230.729331,43.0993192 231.577002,43.0993192 C232.914437,43.0993192 233.61141,43.9469895 233.61141,45.5858184 L233.61141,49.9748663 C233.61141,50.9543962 233.573735,51.5195095 233.479551,52.1976457 L235.457448,52.1976457 C235.363262,51.5195095 235.325587,50.9732332 235.325587,49.9937033 L235.325587,46.2639546 C235.325587,45.7930267 235.645818,44.8888452 235.984886,44.3990802 C236.55,43.5702471 237.378834,43.0993192 238.264177,43.0993192 C238.791617,43.0993192 239.22487,43.2123419 239.545101,43.4383872 C240.110216,43.8339666 240.317424,44.4367544 240.317424,45.5858184 L240.317424,49.9748663 C240.317424,51.0109075 240.298586,51.4441611 240.185563,52.1976457 L242.16346,52.1976457 C242.069274,51.5195095 242.031602,50.9732332 242.031602,49.9937033 L242.031602,45.3220989 C242.031602,44.1541976 241.824393,43.381876 241.31579,42.7602512 C240.731839,42.0067666 239.789985,41.6300242 238.546733,41.6300242 C236.945579,41.6300242 235.928374,42.1951377 234.98652,43.5890843 C234.798148,43.061645 234.685125,42.8355997 234.402569,42.5530429 C233.837455,41.9314182 233.027459,41.6300242 231.953744,41.6300242 C230.446775,41.6300242 229.241199,42.2704862 228.563064,43.4572244 C228.563064,43.3442018 228.563064,43.3442018 228.5819,43.1746677 C228.5819,43.1181564 228.600737,42.8355997 228.600737,42.7790882 L228.600737,41.8372325 L226.773537,41.8372325 C226.867723,42.5153687 226.905398,43.0239708 226.905398,44.0600122 L226.905398,49.9748663 C226.905398,50.916722 226.867723,51.4818353 226.773537,52.1976457 L228.732598,52.1976457 L228.732598,52.1976457 Z M246.684369,56.0592543 C246.590183,55.3622811 246.552508,54.7783306 246.552508,53.8176376 L246.552508,51.8209035 C246.552508,51.3123014 246.533672,51.0297447 246.495997,50.5211426 C247.45669,51.7455551 248.718777,52.3483426 250.357605,52.3483426 C253.25852,52.3483426 255.123395,50.2574228 255.123395,46.979765 C255.123395,43.6455955 253.315034,41.6300242 250.319932,41.6300242 C248.643428,41.6300242 247.400179,42.2516492 246.495997,43.5325729 C246.533672,43.1369934 246.533672,43.0239708 246.533672,42.7979255 L246.533672,41.8372325 L244.744145,41.8372325 C244.838331,42.5530429 244.876006,43.1369934 244.876006,44.0976864 L244.876006,53.8364749 C244.876006,54.6841449 244.838331,55.3057697 244.744145,56.0592543 L246.684369,56.0592543 L246.684369,56.0592543 Z M250.13156,50.8978848 C249.189703,50.8978848 248.22901,50.5211426 247.626223,49.8995179 C246.966925,49.2402187 246.571344,48.1476661 246.571344,46.998602 C246.571344,44.7004739 248.021804,43.0993192 250.150396,43.0993192 C252.203643,43.0993192 253.371545,44.5121028 253.371545,46.979765 C253.371545,49.42859 252.147132,50.8978848 250.13156,50.8978848 L250.13156,50.8978848 L250.13156,50.8978848 Z M264.617302,41.8372325 C264.711488,42.5907171 264.749161,43.2311791 264.749161,44.0600122 L264.749161,47.7520866 C264.541952,48.5244083 264.297071,48.9764991 263.788468,49.5792869 C263.016147,50.5023054 262.206151,50.916722 261.22662,50.916722 C259.795001,50.916722 259.060353,50.0690517 259.060353,48.4113856 L259.060353,44.0600122 C259.060353,43.1746677 259.098028,42.6283914 259.192211,41.8372325 L257.214314,41.8372325 C257.3085,42.4776945 257.346175,43.061645 257.346175,44.0411749 L257.346175,48.6751054 C257.346175,49.6734723 257.534545,50.4081199 257.911288,50.9732332 C258.532913,51.8774147 259.606629,52.3671798 260.981739,52.3671798 C262.639405,52.3671798 263.844979,51.7078809 264.786835,50.2762601 C264.749161,50.7471879 264.749161,50.8413736 264.749161,51.0862559 L264.749161,52.1976457 L266.595199,52.1976457 C266.482176,51.4441611 266.444502,50.8978848 266.444502,49.9748663 L266.444502,44.0600122 C266.444502,43.0993192 266.482176,42.5907171 266.595199,41.8372325 L264.617302,41.8372325 L264.617302,41.8372325 Z M270.400296,39.0116653 C270.475643,39.6521271 270.532155,40.4056117 270.532155,41.1590963 L270.532155,41.8372325 L269.797509,41.8372325 C269.006349,41.8372325 268.629607,41.8183953 268.102168,41.7242099 L268.102168,43.381876 C268.704955,43.3065275 269.119372,43.2688533 269.77867,43.2688533 L270.532155,43.2688533 L270.532155,49.8806806 C270.532155,50.8413736 270.70169,51.4064869 271.116105,51.8020663 C271.530522,52.1788087 272.208659,52.3860171 273.112841,52.3860171 C273.904,52.3860171 274.506787,52.2729942 275.297947,51.9527632 L274.88353,50.4269569 C274.299579,50.7660251 273.922837,50.8790478 273.414233,50.8790478 C273.018655,50.8790478 272.698424,50.7660251 272.510052,50.596491 C272.321682,50.4081199 272.246334,50.1444002 272.246334,49.5981239 L272.246334,43.2688533 L273.131677,43.2688533 C273.998184,43.2688533 274.431438,43.2876903 275.034227,43.381876 L275.034227,41.7242099 C274.412601,41.8183953 273.998184,41.8372325 273.112841,41.8372325 L272.246334,41.8372325 L272.246334,41.1590963 C272.246334,40.3491005 272.302845,39.6144529 272.378193,39.0116653 L270.400296,39.0116653 L270.400296,39.0116653 Z M276.823752,37.6742302 L276.823752,39.5579416 L278.914671,39.5579416 L278.914671,37.6742302 L276.823752,37.6742302 L276.823752,37.6742302 Z M276.861427,41.8372325 C276.955613,42.4965315 276.993285,43.1181564 276.993285,44.0600122 L276.993285,49.9748663 C276.993285,50.8413736 276.955613,51.3688127 276.861427,52.1976457 L278.85816,52.1976457 C278.763974,51.4064869 278.726301,50.8790478 278.726301,49.9748663 L278.726301,44.0788492 C278.726301,43.061645 278.763974,42.5153687 278.85816,41.8372325 L276.861427,41.8372325 L276.861427,41.8372325 Z M283.473253,52.1976457 C283.379069,51.4441611 283.341394,50.8036994 283.341394,49.9748663 L283.341394,46.2827916 C283.548602,45.51047 283.793484,45.0583791 284.302087,44.4555916 C285.074408,43.5325729 285.884405,43.1181564 286.863935,43.1181564 C288.295556,43.1181564 289.030202,43.9658265 289.030202,45.6234926 L289.030202,49.9748663 C289.030202,50.8602106 288.992529,51.4064869 288.898343,52.1976457 L290.87624,52.1976457 C290.782054,51.557184 290.744379,50.9732332 290.744379,49.9937033 L290.744379,45.3597731 C290.744379,44.3614059 290.556009,43.6267585 290.179267,43.0428078 C289.557641,42.1386263 288.483926,41.6488614 287.108816,41.6488614 C285.432313,41.6488614 284.245576,42.3081604 283.303719,43.7586182 C283.341394,43.2876903 283.341394,43.1935049 283.341394,42.9486223 L283.341394,41.8372325 L281.495356,41.8372325 C281.60838,42.5907171 281.646053,43.1369934 281.646053,44.0600122 L281.646053,49.9748663 C281.646053,50.935559 281.60838,51.4441611 281.495356,52.1976457 L283.473253,52.1976457 L283.473253,52.1976457 Z M293.362738,54.1943801 C294.60599,55.5694894 295.849239,56.0969285 297.789461,56.0969285 C299.522477,56.0969285 301.010607,55.5883264 301.820605,54.7218191 C302.668273,53.8364749 303.026179,52.6308994 303.026179,50.6341653 L303.026179,44.0223379 C303.026179,43.0993192 303.063854,42.6095541 303.15804,41.8372325 L301.387349,41.8372325 L301.387349,42.7979255 C301.387349,43.0051336 301.387349,43.1369934 301.425024,43.4383872 C300.633865,42.2704862 299.428291,41.6676984 297.845972,41.6676984 C294.869709,41.6676984 292.985996,43.720944 292.985996,46.9232536 C292.985996,50.106726 294.832034,52.1222973 297.751786,52.1222973 C298.863176,52.1222973 299.88038,51.8020663 300.615028,51.236953 C300.935259,50.9732332 301.123632,50.7471879 301.425024,50.2574228 C301.387349,51.5006725 301.25549,52.3106684 301.048282,52.8381077 C300.558517,54.043683 299.409452,54.7029821 297.827136,54.7029821 C296.508537,54.7029821 295.566682,54.2508913 294.775523,53.2148499 L293.362738,54.1943801 L293.362738,54.1943801 Z M294.737848,46.9609278 C294.737848,44.5686143 295.981097,43.080482 297.996669,43.080482 C300.012241,43.080482 301.349676,44.5686143 301.349676,46.8102309 C301.349676,49.1460332 299.936892,50.7283509 297.883647,50.7283509 C295.943425,50.7283509 294.737848,49.2778929 294.737848,46.9609278 L294.737848,46.9609278 L294.737848,46.9609278 Z M213.794765,68.6612844 C213.794765,69.6219771 213.738254,70.413136 213.644068,71.0347609 L215.621965,71.0347609 C215.508943,70.3566247 215.471268,69.7915112 215.471268,68.6612844 L215.471268,58.9036587 C215.471268,57.8299431 215.508943,57.2836668 215.621965,56.5113452 L213.078955,56.5113452 C212.965932,57.1329699 212.777561,57.6980834 212.438493,58.4892423 L208.030608,68.5670987 L203.622723,58.4892423 C203.340166,57.8299431 203.114121,57.1141329 202.982261,56.5113452 L200.439251,56.5113452 C200.552273,57.2271556 200.589948,57.8864545 200.589948,58.9036587 L200.589948,68.6612844 C200.589948,69.735 200.552273,70.3189505 200.439251,71.0347609 L202.417148,71.0347609 C202.304125,70.3754617 202.266451,69.735 202.266451,68.6612844 L202.266451,62.0306199 C202.266451,61.4655063 202.209939,59.9208629 202.134591,58.5457535 C202.680867,60.2410939 202.831564,60.6366733 203.377841,61.8610858 L206.485965,68.9061669 C206.881544,69.753837 207.126426,70.4884844 207.220612,71.0347609 L208.80293,71.0347609 C208.991301,70.3001133 209.160835,69.7915112 209.556414,68.9250039 L212.758724,61.7480631 C213.399186,60.2976053 213.625231,59.7136548 213.926625,58.5645907 C213.870114,59.4122608 213.794765,61.2206238 213.794765,61.89876 L213.794765,68.6612844 L213.794765,68.6612844 Z M225.19122,71.0347609 L226.980745,71.0347609 C226.867723,70.2436021 226.830048,69.7915112 226.830048,68.8684927 L226.830048,63.6317746 C226.830048,62.5957334 226.585167,61.879923 226.020052,61.3524837 C225.341916,60.6931847 224.305875,60.3729537 222.874254,60.3729537 C221.423796,60.3729537 220.274733,60.7120217 219.445899,61.4089951 C218.899623,61.8422488 218.617067,62.2755024 218.277999,63.2173581 L220.02985,63.5564261 C220.199384,63.047824 220.331245,62.8029415 220.576126,62.5392219 C221.084729,62.0117826 221.838213,61.7480631 222.855418,61.7480631 C224.456572,61.7480631 225.19122,62.3508508 225.19122,63.6317746 L225.19122,64.6113045 C222.742395,64.6678159 221.706355,64.7996758 220.576126,65.157581 C218.956135,65.6850201 218.033116,66.8152472 218.033116,68.265705 C218.033116,70.092905 219.332877,71.2042948 221.442635,71.2042948 C222.177281,71.2042948 222.874254,71.0912722 223.514716,70.8463896 C224.136341,70.6203443 224.475409,70.394299 225.19122,69.7726742 L225.19122,71.0347609 L225.19122,71.0347609 Z M225.19122,67.0224553 C225.19122,67.7194287 225.021685,68.1715193 224.569595,68.6424472 C223.834947,69.3959318 222.70472,69.8668597 221.66868,69.8668597 C220.481942,69.8668597 219.747294,69.2452349 219.747294,68.265705 C219.747294,67.3991977 220.218222,66.7964099 221.160077,66.4196677 C221.988911,66.0805995 223.04379,65.9487399 225.19122,65.8922284 L225.19122,67.0224553 L225.19122,67.0224553 Z M238.433711,63.4622407 C238.226502,62.9159642 238.056969,62.5957334 237.774413,62.200154 C236.945579,61.0134157 235.626982,60.3917907 233.988152,60.3917907 C230.993051,60.3917907 229.033992,62.5768962 229.033992,65.8922284 C229.033992,69.1887235 231.011889,71.2984805 234.063502,71.2984805 C235.664657,71.2984805 236.945579,70.7333669 237.793249,69.6219771 C238.11348,69.2075607 238.301852,68.8496555 238.565572,68.1338451 L236.889067,67.7194287 C236.738372,68.1903565 236.644186,68.4164019 236.493489,68.6612844 C236.003724,69.414769 235.156054,69.8291854 234.120013,69.8291854 C232.066766,69.8291854 230.767006,68.284542 230.767006,65.8545542 C230.767006,63.3868922 232.029094,61.8234115 234.044663,61.8234115 C235.382099,61.8234115 236.267444,62.5015477 236.776045,63.9331685 L238.433711,63.4622407 L238.433711,63.4622407 Z M242.596714,71.0347609 C242.502528,70.2812763 242.464855,69.6408143 242.464855,68.8119813 L242.464855,65.1387438 C242.6909,64.347585 242.95462,63.8578201 243.463221,63.2550324 C244.179032,62.4073621 245.026703,61.9741084 245.987396,61.9741084 C246.66553,61.9741084 247.230645,62.200154 247.607387,62.6145704 C247.965293,63.0101498 248.153663,63.6129376 248.153663,64.4417706 L248.153663,68.8119813 C248.153663,69.7915112 248.115988,70.3754617 248.002966,71.0347609 L249.999701,71.0347609 C249.905515,70.3566247 249.86784,69.7161628 249.86784,68.8308183 L249.86784,64.0838654 C249.86784,61.8234115 248.530405,60.4859764 246.269952,60.4859764 C244.555775,60.4859764 243.331362,61.1829496 242.408344,62.6334076 C242.446016,62.0682941 242.464855,62.0117826 242.464855,61.7103889 L242.464855,58.7529618 C242.464855,57.7545947 242.483691,57.2271556 242.596714,56.5113452 L240.637653,56.5113452 C240.750678,57.2271556 240.78835,57.7545947 240.78835,58.7341248 L240.78835,68.8119813 C240.78835,69.7915112 240.750678,70.3001133 240.637653,71.0347609 L242.596714,71.0347609 L242.596714,71.0347609 Z M252.561547,56.5113452 L252.561547,58.3950566 L254.652469,58.3950566 L254.652469,56.5113452 L252.561547,56.5113452 L252.561547,56.5113452 Z M252.599222,60.6743475 C252.693408,61.3336467 252.731083,61.9552714 252.731083,62.8971271 L252.731083,68.8119813 C252.731083,69.6784886 252.693408,70.2059279 252.599222,71.0347609 L254.595955,71.0347609 C254.501771,70.2436021 254.464096,69.7161628 254.464096,68.8119813 L254.464096,62.9159642 C254.464096,61.89876 254.501771,61.3524837 254.595955,60.6743475 L252.599222,60.6743475 L252.599222,60.6743475 Z M259.21105,71.0347609 C259.116864,70.2812763 259.079189,69.6408143 259.079189,68.8119813 L259.079189,65.1199068 C259.286398,64.347585 259.531281,63.8954943 260.039882,63.2927066 C260.812205,62.3696878 261.622201,61.9552714 262.60173,61.9552714 C264.033351,61.9552714 264.767999,62.8029415 264.767999,64.4606076 L264.767999,68.8119813 C264.767999,69.6973256 264.730324,70.2436021 264.636138,71.0347609 L266.614035,71.0347609 C266.519849,70.394299 266.482176,69.8103484 266.482176,68.8308183 L266.482176,64.1968881 C266.482176,63.1985209 266.293804,62.4638735 265.917062,61.879923 C265.295439,60.9757415 264.221721,60.4859764 262.846613,60.4859764 C261.170109,60.4859764 259.983371,61.1452754 259.041516,62.5957334 C259.079189,62.1248055 259.079189,62.0306199 259.079189,61.7857373 L259.079189,60.6743475 L257.233153,60.6743475 C257.346175,61.4278321 257.38385,61.9741084 257.38385,62.8971271 L257.38385,68.8119813 C257.38385,69.7726742 257.346175,70.2812763 257.233153,71.0347609 L259.21105,71.0347609 L259.21105,71.0347609 Z M278.40607,66.1747852 C278.349559,65.2329295 278.311884,64.83735 278.274209,64.6489789 C277.897467,62.0117826 276.107942,60.410628 273.564931,60.410628 C270.626341,60.410628 268.704955,62.5580592 268.704955,65.8545542 C268.704955,69.2075607 270.645179,71.3173175 273.696792,71.3173175 C275.147249,71.3173175 276.352824,70.8463896 277.257005,69.9422081 C277.709097,69.5089545 277.953978,69.1322123 278.311884,68.3410534 L276.729566,67.7571029 C276.541196,68.3033792 276.409335,68.5482617 276.126779,68.8496555 C275.542828,69.5277917 274.713996,69.8856969 273.715628,69.8856969 C272.623076,69.8856969 271.737731,69.4712802 271.15378,68.6801214 C270.664016,68.0208224 270.475643,67.3991977 270.400296,66.1747852 L278.40607,66.1747852 L278.40607,66.1747852 Z M270.456807,64.7996758 C270.569829,64.1215396 270.664016,63.8201459 270.927735,63.368055 C271.492848,62.3696878 272.415868,61.8234115 273.527256,61.8234115 C274.412601,61.8234115 275.128411,62.0871311 275.693525,62.6334076 C276.239801,63.1796839 276.522357,63.8201459 276.635382,64.7996758 L270.456807,64.7996758 L270.456807,64.7996758 Z M287.410211,60.6743475 C286.63789,60.5424878 286.261148,60.5048136 285.677197,60.5048136 C284.697665,60.5048136 283.831159,60.7685332 283.190697,61.2771352 C282.870466,61.5031806 282.644421,61.7857373 282.32419,62.2755024 C282.343026,62.1248055 282.343026,62.0871311 282.361865,61.9552714 L282.361865,61.8234115 L282.361865,61.6538774 L282.361865,60.6743475 L280.515826,60.6743475 C280.610012,61.3713209 280.647687,61.89876 280.647687,62.8971271 L280.647687,68.8119813 C280.647687,69.6596513 280.628849,70.1117422 280.515826,71.0347609 L282.493723,71.0347609 C282.399537,70.2624391 282.361865,69.7161628 282.361865,68.8119813 L282.361865,65.0822326 C282.456049,64.2157253 282.625584,63.7636344 283.077674,63.1796839 C283.642789,62.4638735 284.396273,62.1059683 285.375802,62.1059683 C285.865567,62.1059683 286.223473,62.1624797 286.920446,62.3885251 L287.410211,60.6743475 L287.410211,60.6743475 Z M292.345534,70.5826701 L291.535538,72.4663815 C291.252982,73.1256807 290.782054,73.4835857 290.160431,73.4835857 C289.783686,73.4835857 289.463455,73.3894002 288.936018,73.1445177 L288.521601,74.7833468 C289.256249,74.9340437 289.727175,74.9905549 290.179267,74.9905549 C291.629725,74.9905549 292.533906,74.4066044 293.061346,73.1445177 L297.299696,62.9159642 C297.827136,61.6727147 298.147367,60.91923 298.241553,60.6743475 L296.207144,60.6743475 C296.112958,61.2206238 295.962261,61.7103889 295.566682,62.7464303 L293.230879,68.7743071 L290.61252,62.727593 C290.292289,61.9929456 290.047406,61.2017868 289.953222,60.6743475 L287.824628,60.6743475 C288.031836,61.0699269 288.031836,61.0699269 288.879507,62.9159642 L292.345534,70.5826701 L292.345534,70.5826701 Z" id="Association" fill="#262626"></path>
                </g>
            </g>
        </g>
    </g>
</svg>